<mxfile host="app.diagrams.net" agent="Mozilla/5.0 (Windows NT 10.0; Win64; x64) AppleWebKit/537.36 (KHTML, like Gecko) Chrome/131.0.0.0 Safari/537.36" version="24.9.1">
  <diagram name="Сторінка-1" id="kx6VqbXG0v3h4aEq7V4B">
    <mxGraphModel dx="750" dy="398" grid="1" gridSize="10" guides="1" tooltips="1" connect="1" arrows="1" fold="1" page="1" pageScale="1" pageWidth="827" pageHeight="1169" math="0" shadow="0">
      <root>
        <mxCell id="0" />
        <mxCell id="1" parent="0" />
        <mxCell id="U1rXRDyI1pyq9QR3dmrv-1" value="" style="ellipse;whiteSpace=wrap;html=1;aspect=fixed;" vertex="1" parent="1">
          <mxGeometry x="370" y="155" width="60" height="60" as="geometry" />
        </mxCell>
        <mxCell id="U1rXRDyI1pyq9QR3dmrv-2" value="" style="rounded=0;whiteSpace=wrap;html=1;rotation=90;" vertex="1" parent="1">
          <mxGeometry x="280" y="260" width="60" height="20" as="geometry" />
        </mxCell>
        <mxCell id="U1rXRDyI1pyq9QR3dmrv-3" value="" style="rounded=0;whiteSpace=wrap;html=1;rotation=90;" vertex="1" parent="1">
          <mxGeometry x="460" y="260" width="60" height="20" as="geometry" />
        </mxCell>
        <mxCell id="U1rXRDyI1pyq9QR3dmrv-4" value="" style="endArrow=classic;html=1;rounded=0;entryX=0;entryY=0;entryDx=0;entryDy=0;exitX=0;exitY=1;exitDx=0;exitDy=0;" edge="1" parent="1" source="U1rXRDyI1pyq9QR3dmrv-1" target="U1rXRDyI1pyq9QR3dmrv-2">
          <mxGeometry relative="1" as="geometry">
            <mxPoint x="360" y="180" as="sourcePoint" />
            <mxPoint x="460" y="180" as="targetPoint" />
          </mxGeometry>
        </mxCell>
        <mxCell id="U1rXRDyI1pyq9QR3dmrv-6" value="" style="endArrow=classic;html=1;rounded=0;entryX=0;entryY=1;entryDx=0;entryDy=0;exitX=1;exitY=1;exitDx=0;exitDy=0;" edge="1" parent="1" source="U1rXRDyI1pyq9QR3dmrv-1" target="U1rXRDyI1pyq9QR3dmrv-3">
          <mxGeometry relative="1" as="geometry">
            <mxPoint x="389" y="101" as="sourcePoint" />
            <mxPoint x="330" y="150" as="targetPoint" />
          </mxGeometry>
        </mxCell>
        <mxCell id="U1rXRDyI1pyq9QR3dmrv-9" value="R - надає перевагу швидкості" style="text;html=1;align=center;verticalAlign=middle;whiteSpace=wrap;rounded=0;" vertex="1" parent="1">
          <mxGeometry x="110" y="20" width="130" height="30" as="geometry" />
        </mxCell>
        <mxCell id="U1rXRDyI1pyq9QR3dmrv-11" value="Надає перевагу швидкості" style="text;html=1;align=center;verticalAlign=middle;whiteSpace=wrap;rounded=0;" vertex="1" parent="1">
          <mxGeometry x="310" y="255" width="80" height="30" as="geometry" />
        </mxCell>
        <mxCell id="U1rXRDyI1pyq9QR3dmrv-12" value="Надає перевагу комфорту" style="text;html=1;align=center;verticalAlign=middle;whiteSpace=wrap;rounded=0;" vertex="1" parent="1">
          <mxGeometry x="420" y="255" width="60" height="30" as="geometry" />
        </mxCell>
        <mxCell id="U1rXRDyI1pyq9QR3dmrv-13" value="Студент вирішує купити авто" style="text;html=1;align=center;verticalAlign=middle;whiteSpace=wrap;rounded=0;" vertex="1" parent="1">
          <mxGeometry x="351.25" y="10" width="97.5" height="30" as="geometry" />
        </mxCell>
        <mxCell id="U1rXRDyI1pyq9QR3dmrv-14" value="" style="ellipse;whiteSpace=wrap;html=1;aspect=fixed;" vertex="1" parent="1">
          <mxGeometry x="370" y="40" width="60" height="60" as="geometry" />
        </mxCell>
        <mxCell id="U1rXRDyI1pyq9QR3dmrv-16" value="B - надає перевагу комфорту" style="text;html=1;align=center;verticalAlign=middle;whiteSpace=wrap;rounded=0;" vertex="1" parent="1">
          <mxGeometry x="110" y="50" width="130" height="30" as="geometry" />
        </mxCell>
        <mxCell id="U1rXRDyI1pyq9QR3dmrv-17" value="G - вміти заробляти гроші" style="text;html=1;align=center;verticalAlign=middle;whiteSpace=wrap;rounded=0;" vertex="1" parent="1">
          <mxGeometry x="110" y="80" width="130" height="30" as="geometry" />
        </mxCell>
        <mxCell id="U1rXRDyI1pyq9QR3dmrv-18" value="Y - гроші&amp;nbsp; &amp;nbsp; &amp;nbsp; &amp;nbsp; &amp;nbsp; &amp;nbsp; &amp;nbsp; &amp;nbsp; &amp;nbsp;&lt;div&gt;1*Y = 5.000$&lt;/div&gt;" style="text;html=1;align=center;verticalAlign=middle;whiteSpace=wrap;rounded=0;" vertex="1" parent="1">
          <mxGeometry x="110" y="110" width="130" height="30" as="geometry" />
        </mxCell>
        <mxCell id="U1rXRDyI1pyq9QR3dmrv-23" value="" style="rounded=0;whiteSpace=wrap;html=1;rotation=90;" vertex="1" parent="1">
          <mxGeometry x="460" y="120" width="60" height="20" as="geometry" />
        </mxCell>
        <mxCell id="U1rXRDyI1pyq9QR3dmrv-24" value="Має збереження у розмірі 5.000$" style="text;html=1;align=center;verticalAlign=middle;whiteSpace=wrap;rounded=0;" vertex="1" parent="1">
          <mxGeometry x="500" y="115" width="110" height="30" as="geometry" />
        </mxCell>
        <mxCell id="U1rXRDyI1pyq9QR3dmrv-25" value="" style="endArrow=classic;html=1;rounded=0;entryX=0.25;entryY=1;entryDx=0;entryDy=0;exitX=1;exitY=1;exitDx=0;exitDy=0;" edge="1" parent="1" source="U1rXRDyI1pyq9QR3dmrv-14" target="U1rXRDyI1pyq9QR3dmrv-23">
          <mxGeometry relative="1" as="geometry">
            <mxPoint x="450" y="80" as="sourcePoint" />
            <mxPoint x="460" y="180" as="targetPoint" />
          </mxGeometry>
        </mxCell>
        <mxCell id="U1rXRDyI1pyq9QR3dmrv-27" value="" style="endArrow=classic;html=1;rounded=0;entryX=1;entryY=0;entryDx=0;entryDy=0;exitX=0.75;exitY=1;exitDx=0;exitDy=0;" edge="1" parent="1" source="U1rXRDyI1pyq9QR3dmrv-23" target="U1rXRDyI1pyq9QR3dmrv-1">
          <mxGeometry relative="1" as="geometry">
            <mxPoint x="360" y="180" as="sourcePoint" />
            <mxPoint x="460" y="180" as="targetPoint" />
          </mxGeometry>
        </mxCell>
        <mxCell id="U1rXRDyI1pyq9QR3dmrv-31" value="" style="ellipse;whiteSpace=wrap;html=1;aspect=fixed;" vertex="1" parent="1">
          <mxGeometry x="180" y="270" width="60" height="60" as="geometry" />
        </mxCell>
        <mxCell id="U1rXRDyI1pyq9QR3dmrv-32" value="" style="endArrow=classic;html=1;rounded=0;entryX=1;entryY=0;entryDx=0;entryDy=0;exitX=0.5;exitY=1;exitDx=0;exitDy=0;" edge="1" parent="1" source="U1rXRDyI1pyq9QR3dmrv-2" target="U1rXRDyI1pyq9QR3dmrv-31">
          <mxGeometry width="50" height="50" relative="1" as="geometry">
            <mxPoint x="390" y="340" as="sourcePoint" />
            <mxPoint x="440" y="290" as="targetPoint" />
          </mxGeometry>
        </mxCell>
        <mxCell id="U1rXRDyI1pyq9QR3dmrv-35" value="" style="ellipse;whiteSpace=wrap;html=1;aspect=fixed;" vertex="1" parent="1">
          <mxGeometry x="560" y="270" width="60" height="60" as="geometry" />
        </mxCell>
        <mxCell id="U1rXRDyI1pyq9QR3dmrv-36" value="" style="endArrow=classic;html=1;rounded=0;entryX=0;entryY=0;entryDx=0;entryDy=0;exitX=0.5;exitY=0;exitDx=0;exitDy=0;" edge="1" parent="1" source="U1rXRDyI1pyq9QR3dmrv-3" target="U1rXRDyI1pyq9QR3dmrv-35">
          <mxGeometry width="50" height="50" relative="1" as="geometry">
            <mxPoint x="549" y="306" as="sourcePoint" />
            <mxPoint x="480" y="315" as="targetPoint" />
          </mxGeometry>
        </mxCell>
        <mxCell id="U1rXRDyI1pyq9QR3dmrv-38" value="" style="rounded=0;whiteSpace=wrap;html=1;rotation=90;" vertex="1" parent="1">
          <mxGeometry x="200" y="420" width="60" height="20" as="geometry" />
        </mxCell>
        <mxCell id="U1rXRDyI1pyq9QR3dmrv-39" value="" style="rounded=0;whiteSpace=wrap;html=1;rotation=90;" vertex="1" parent="1">
          <mxGeometry x="280" y="370" width="60" height="20" as="geometry" />
        </mxCell>
        <mxCell id="U1rXRDyI1pyq9QR3dmrv-40" value="" style="rounded=0;whiteSpace=wrap;html=1;rotation=90;" vertex="1" parent="1">
          <mxGeometry x="460" y="370" width="60" height="20" as="geometry" />
        </mxCell>
        <mxCell id="U1rXRDyI1pyq9QR3dmrv-41" value="" style="rounded=0;whiteSpace=wrap;html=1;rotation=90;" vertex="1" parent="1">
          <mxGeometry x="540" y="420" width="60" height="20" as="geometry" />
        </mxCell>
        <mxCell id="U1rXRDyI1pyq9QR3dmrv-42" value="Вміє заробляти гроші" style="text;html=1;align=center;verticalAlign=middle;whiteSpace=wrap;rounded=0;" vertex="1" parent="1">
          <mxGeometry x="420" y="360" width="60" height="30" as="geometry" />
        </mxCell>
        <mxCell id="U1rXRDyI1pyq9QR3dmrv-43" value="Не вміє заробляти гроші" style="text;html=1;align=center;verticalAlign=middle;whiteSpace=wrap;rounded=0;" vertex="1" parent="1">
          <mxGeometry x="580" y="415" width="60" height="30" as="geometry" />
        </mxCell>
        <mxCell id="U1rXRDyI1pyq9QR3dmrv-44" value="Вміє заробляти гроші" style="text;html=1;align=center;verticalAlign=middle;whiteSpace=wrap;rounded=0;" vertex="1" parent="1">
          <mxGeometry x="320" y="360" width="60" height="30" as="geometry" />
        </mxCell>
        <mxCell id="U1rXRDyI1pyq9QR3dmrv-45" value="Не вміє заробляти гроші" style="text;html=1;align=center;verticalAlign=middle;whiteSpace=wrap;rounded=0;" vertex="1" parent="1">
          <mxGeometry x="160" y="415" width="60" height="30" as="geometry" />
        </mxCell>
        <mxCell id="U1rXRDyI1pyq9QR3dmrv-49" value="" style="endArrow=classic;html=1;rounded=0;exitX=1;exitY=1;exitDx=0;exitDy=0;entryX=0;entryY=1;entryDx=0;entryDy=0;" edge="1" parent="1" source="U1rXRDyI1pyq9QR3dmrv-31" target="U1rXRDyI1pyq9QR3dmrv-39">
          <mxGeometry relative="1" as="geometry">
            <mxPoint x="360" y="320" as="sourcePoint" />
            <mxPoint x="460" y="320" as="targetPoint" />
          </mxGeometry>
        </mxCell>
        <mxCell id="U1rXRDyI1pyq9QR3dmrv-50" value="G:1" style="edgeLabel;resizable=0;html=1;;align=center;verticalAlign=middle;" connectable="0" vertex="1" parent="U1rXRDyI1pyq9QR3dmrv-49">
          <mxGeometry relative="1" as="geometry" />
        </mxCell>
        <mxCell id="U1rXRDyI1pyq9QR3dmrv-51" value="" style="endArrow=classic;html=1;rounded=0;exitX=1;exitY=1;exitDx=0;exitDy=0;entryX=0;entryY=0.5;entryDx=0;entryDy=0;" edge="1" parent="1" source="U1rXRDyI1pyq9QR3dmrv-31" target="U1rXRDyI1pyq9QR3dmrv-38">
          <mxGeometry relative="1" as="geometry">
            <mxPoint x="241" y="331" as="sourcePoint" />
            <mxPoint x="310" y="360" as="targetPoint" />
          </mxGeometry>
        </mxCell>
        <mxCell id="U1rXRDyI1pyq9QR3dmrv-52" value="G:0" style="edgeLabel;resizable=0;html=1;;align=center;verticalAlign=middle;" connectable="0" vertex="1" parent="U1rXRDyI1pyq9QR3dmrv-51">
          <mxGeometry relative="1" as="geometry" />
        </mxCell>
        <mxCell id="U1rXRDyI1pyq9QR3dmrv-53" value="" style="endArrow=classic;html=1;rounded=0;exitX=0;exitY=1;exitDx=0;exitDy=0;entryX=0;entryY=0;entryDx=0;entryDy=0;" edge="1" parent="1" source="U1rXRDyI1pyq9QR3dmrv-35" target="U1rXRDyI1pyq9QR3dmrv-40">
          <mxGeometry relative="1" as="geometry">
            <mxPoint x="241" y="331" as="sourcePoint" />
            <mxPoint x="310" y="360" as="targetPoint" />
          </mxGeometry>
        </mxCell>
        <mxCell id="U1rXRDyI1pyq9QR3dmrv-54" value="G:1" style="edgeLabel;resizable=0;html=1;;align=center;verticalAlign=middle;" connectable="0" vertex="1" parent="U1rXRDyI1pyq9QR3dmrv-53">
          <mxGeometry relative="1" as="geometry" />
        </mxCell>
        <mxCell id="U1rXRDyI1pyq9QR3dmrv-55" value="" style="endArrow=classic;html=1;rounded=0;exitX=0;exitY=1;exitDx=0;exitDy=0;entryX=0;entryY=0.5;entryDx=0;entryDy=0;" edge="1" parent="1" source="U1rXRDyI1pyq9QR3dmrv-35" target="U1rXRDyI1pyq9QR3dmrv-41">
          <mxGeometry relative="1" as="geometry">
            <mxPoint x="241" y="331" as="sourcePoint" />
            <mxPoint x="240" y="410" as="targetPoint" />
          </mxGeometry>
        </mxCell>
        <mxCell id="U1rXRDyI1pyq9QR3dmrv-56" value="G:0" style="edgeLabel;resizable=0;html=1;;align=center;verticalAlign=middle;" connectable="0" vertex="1" parent="U1rXRDyI1pyq9QR3dmrv-55">
          <mxGeometry relative="1" as="geometry" />
        </mxCell>
        <mxCell id="U1rXRDyI1pyq9QR3dmrv-57" value="" style="ellipse;whiteSpace=wrap;html=1;aspect=fixed;" vertex="1" parent="1">
          <mxGeometry x="280" y="445" width="60" height="60" as="geometry" />
        </mxCell>
        <mxCell id="U1rXRDyI1pyq9QR3dmrv-58" value="" style="ellipse;whiteSpace=wrap;html=1;aspect=fixed;" vertex="1" parent="1">
          <mxGeometry x="200" y="495" width="60" height="60" as="geometry" />
        </mxCell>
        <mxCell id="U1rXRDyI1pyq9QR3dmrv-59" value="" style="ellipse;whiteSpace=wrap;html=1;aspect=fixed;" vertex="1" parent="1">
          <mxGeometry x="460" y="445" width="60" height="60" as="geometry" />
        </mxCell>
        <mxCell id="U1rXRDyI1pyq9QR3dmrv-60" value="" style="ellipse;whiteSpace=wrap;html=1;aspect=fixed;" vertex="1" parent="1">
          <mxGeometry x="540" y="495" width="60" height="60" as="geometry" />
        </mxCell>
        <mxCell id="U1rXRDyI1pyq9QR3dmrv-61" value="" style="endArrow=classic;html=1;rounded=0;exitX=1;exitY=0.5;exitDx=0;exitDy=0;entryX=0.5;entryY=0;entryDx=0;entryDy=0;" edge="1" parent="1" source="U1rXRDyI1pyq9QR3dmrv-39" target="U1rXRDyI1pyq9QR3dmrv-57">
          <mxGeometry relative="1" as="geometry">
            <mxPoint x="360" y="390" as="sourcePoint" />
            <mxPoint x="460" y="390" as="targetPoint" />
          </mxGeometry>
        </mxCell>
        <mxCell id="U1rXRDyI1pyq9QR3dmrv-62" value="G:1" style="edgeLabel;resizable=0;html=1;;align=center;verticalAlign=middle;" connectable="0" vertex="1" parent="U1rXRDyI1pyq9QR3dmrv-61">
          <mxGeometry relative="1" as="geometry" />
        </mxCell>
        <mxCell id="U1rXRDyI1pyq9QR3dmrv-64" value="" style="endArrow=classic;html=1;rounded=0;exitX=1;exitY=0.5;exitDx=0;exitDy=0;entryX=0.5;entryY=0;entryDx=0;entryDy=0;" edge="1" parent="1" target="U1rXRDyI1pyq9QR3dmrv-59">
          <mxGeometry relative="1" as="geometry">
            <mxPoint x="489.65999999999997" y="410" as="sourcePoint" />
            <mxPoint x="520" y="440" as="targetPoint" />
          </mxGeometry>
        </mxCell>
        <mxCell id="U1rXRDyI1pyq9QR3dmrv-65" value="G:1" style="edgeLabel;resizable=0;html=1;;align=center;verticalAlign=middle;" connectable="0" vertex="1" parent="U1rXRDyI1pyq9QR3dmrv-64">
          <mxGeometry relative="1" as="geometry" />
        </mxCell>
        <mxCell id="U1rXRDyI1pyq9QR3dmrv-66" value="" style="endArrow=classic;html=1;rounded=0;exitX=1;exitY=0.5;exitDx=0;exitDy=0;entryX=0.5;entryY=0;entryDx=0;entryDy=0;" edge="1" parent="1" target="U1rXRDyI1pyq9QR3dmrv-60">
          <mxGeometry relative="1" as="geometry">
            <mxPoint x="569.66" y="460" as="sourcePoint" />
            <mxPoint x="590" y="500" as="targetPoint" />
          </mxGeometry>
        </mxCell>
        <mxCell id="U1rXRDyI1pyq9QR3dmrv-67" value="G:0 Y:0" style="edgeLabel;resizable=0;html=1;;align=center;verticalAlign=middle;" connectable="0" vertex="1" parent="U1rXRDyI1pyq9QR3dmrv-66">
          <mxGeometry relative="1" as="geometry" />
        </mxCell>
        <mxCell id="U1rXRDyI1pyq9QR3dmrv-68" value="" style="endArrow=classic;html=1;rounded=0;exitX=1;exitY=0.5;exitDx=0;exitDy=0;entryX=0.5;entryY=0;entryDx=0;entryDy=0;" edge="1" parent="1" target="U1rXRDyI1pyq9QR3dmrv-58">
          <mxGeometry relative="1" as="geometry">
            <mxPoint x="230" y="460" as="sourcePoint" />
            <mxPoint x="260" y="490" as="targetPoint" />
          </mxGeometry>
        </mxCell>
        <mxCell id="U1rXRDyI1pyq9QR3dmrv-69" value="G:0" style="edgeLabel;resizable=0;html=1;;align=center;verticalAlign=middle;" connectable="0" vertex="1" parent="U1rXRDyI1pyq9QR3dmrv-68">
          <mxGeometry relative="1" as="geometry" />
        </mxCell>
        <mxCell id="U1rXRDyI1pyq9QR3dmrv-70" value="Відпочиває на канікулах" style="text;html=1;align=center;verticalAlign=middle;whiteSpace=wrap;rounded=0;" vertex="1" parent="1">
          <mxGeometry x="600" y="510" width="80" height="30" as="geometry" />
        </mxCell>
        <mxCell id="U1rXRDyI1pyq9QR3dmrv-71" value="Влаштовується на гарну роботу" style="text;html=1;align=center;verticalAlign=middle;whiteSpace=wrap;rounded=0;" vertex="1" parent="1">
          <mxGeometry x="370" y="460" width="60" height="30" as="geometry" />
        </mxCell>
        <mxCell id="U1rXRDyI1pyq9QR3dmrv-72" value="Підпрацьовує на канікулах" style="text;html=1;align=center;verticalAlign=middle;whiteSpace=wrap;rounded=0;" vertex="1" parent="1">
          <mxGeometry x="130" y="510" width="60" height="30" as="geometry" />
        </mxCell>
        <mxCell id="U1rXRDyI1pyq9QR3dmrv-85" value="" style="ellipse;whiteSpace=wrap;html=1;aspect=fixed;" vertex="1" parent="1">
          <mxGeometry x="370" y="570" width="60" height="60" as="geometry" />
        </mxCell>
        <mxCell id="U1rXRDyI1pyq9QR3dmrv-86" value="Перевіряє ринок автомобілів" style="text;html=1;align=center;verticalAlign=middle;whiteSpace=wrap;rounded=0;" vertex="1" parent="1">
          <mxGeometry x="357.5" y="530" width="85" height="30" as="geometry" />
        </mxCell>
        <mxCell id="U1rXRDyI1pyq9QR3dmrv-91" value="" style="rounded=0;whiteSpace=wrap;html=1;rotation=90;" vertex="1" parent="1">
          <mxGeometry x="297.5" y="690" width="60" height="20" as="geometry" />
        </mxCell>
        <mxCell id="U1rXRDyI1pyq9QR3dmrv-92" value="" style="rounded=0;whiteSpace=wrap;html=1;rotation=90;" vertex="1" parent="1">
          <mxGeometry x="440" y="690" width="60" height="20" as="geometry" />
        </mxCell>
        <mxCell id="U1rXRDyI1pyq9QR3dmrv-93" value="" style="rounded=0;whiteSpace=wrap;html=1;rotation=90;" vertex="1" parent="1">
          <mxGeometry x="480" y="670" width="60" height="20" as="geometry" />
        </mxCell>
        <mxCell id="U1rXRDyI1pyq9QR3dmrv-94" value="" style="rounded=0;whiteSpace=wrap;html=1;rotation=90;" vertex="1" parent="1">
          <mxGeometry x="260" y="670" width="60" height="20" as="geometry" />
        </mxCell>
        <mxCell id="U1rXRDyI1pyq9QR3dmrv-95" value="" style="endArrow=classic;html=1;rounded=0;entryX=0;entryY=0.5;entryDx=0;entryDy=0;exitX=0;exitY=1;exitDx=0;exitDy=0;" edge="1" parent="1" source="U1rXRDyI1pyq9QR3dmrv-85" target="U1rXRDyI1pyq9QR3dmrv-94">
          <mxGeometry relative="1" as="geometry">
            <mxPoint x="370" y="610" as="sourcePoint" />
            <mxPoint x="470" y="610" as="targetPoint" />
          </mxGeometry>
        </mxCell>
        <mxCell id="U1rXRDyI1pyq9QR3dmrv-96" value="R:1 Y:2" style="edgeLabel;resizable=0;html=1;;align=center;verticalAlign=middle;" connectable="0" vertex="1" parent="U1rXRDyI1pyq9QR3dmrv-95">
          <mxGeometry relative="1" as="geometry" />
        </mxCell>
        <mxCell id="U1rXRDyI1pyq9QR3dmrv-97" value="" style="endArrow=classic;html=1;rounded=0;entryX=0;entryY=0.5;entryDx=0;entryDy=0;exitX=0;exitY=1;exitDx=0;exitDy=0;" edge="1" parent="1" source="U1rXRDyI1pyq9QR3dmrv-85" target="U1rXRDyI1pyq9QR3dmrv-91">
          <mxGeometry relative="1" as="geometry">
            <mxPoint x="370" y="610" as="sourcePoint" />
            <mxPoint x="470" y="610" as="targetPoint" />
          </mxGeometry>
        </mxCell>
        <mxCell id="U1rXRDyI1pyq9QR3dmrv-98" value="R:1 Y:7" style="edgeLabel;resizable=0;html=1;;align=center;verticalAlign=middle;" connectable="0" vertex="1" parent="U1rXRDyI1pyq9QR3dmrv-97">
          <mxGeometry relative="1" as="geometry" />
        </mxCell>
        <mxCell id="U1rXRDyI1pyq9QR3dmrv-101" value="" style="endArrow=classic;html=1;rounded=0;entryX=0;entryY=0.5;entryDx=0;entryDy=0;exitX=1;exitY=1;exitDx=0;exitDy=0;" edge="1" parent="1" source="U1rXRDyI1pyq9QR3dmrv-85" target="U1rXRDyI1pyq9QR3dmrv-93">
          <mxGeometry relative="1" as="geometry">
            <mxPoint x="370" y="550" as="sourcePoint" />
            <mxPoint x="470" y="550" as="targetPoint" />
          </mxGeometry>
        </mxCell>
        <mxCell id="U1rXRDyI1pyq9QR3dmrv-102" value="B:1" style="edgeLabel;resizable=0;html=1;;align=center;verticalAlign=middle;" connectable="0" vertex="1" parent="U1rXRDyI1pyq9QR3dmrv-101">
          <mxGeometry relative="1" as="geometry" />
        </mxCell>
        <mxCell id="U1rXRDyI1pyq9QR3dmrv-103" value="Обирає Subaru Impreza 2006&amp;nbsp;" style="text;html=1;align=center;verticalAlign=middle;whiteSpace=wrap;rounded=0;" vertex="1" parent="1">
          <mxGeometry x="190" y="665" width="90" height="30" as="geometry" />
        </mxCell>
        <mxCell id="U1rXRDyI1pyq9QR3dmrv-104" value="Infiniti Q60 2021" style="text;html=1;align=center;verticalAlign=middle;whiteSpace=wrap;rounded=0;" vertex="1" parent="1">
          <mxGeometry x="340" y="680" width="58.75" height="30" as="geometry" />
        </mxCell>
        <mxCell id="U1rXRDyI1pyq9QR3dmrv-105" value="" style="endArrow=classic;html=1;rounded=0;entryX=0;entryY=0.5;entryDx=0;entryDy=0;exitX=1;exitY=1;exitDx=0;exitDy=0;" edge="1" parent="1" source="U1rXRDyI1pyq9QR3dmrv-85" target="U1rXRDyI1pyq9QR3dmrv-92">
          <mxGeometry relative="1" as="geometry">
            <mxPoint x="399.75" y="646" as="sourcePoint" />
            <mxPoint x="448.75" y="695" as="targetPoint" />
          </mxGeometry>
        </mxCell>
        <mxCell id="U1rXRDyI1pyq9QR3dmrv-106" value="B:1 Y:6" style="edgeLabel;resizable=0;html=1;;align=center;verticalAlign=middle;" connectable="0" vertex="1" parent="U1rXRDyI1pyq9QR3dmrv-105">
          <mxGeometry relative="1" as="geometry" />
        </mxCell>
        <mxCell id="U1rXRDyI1pyq9QR3dmrv-107" value="Mercedes-Benz GLE 2016" style="text;html=1;align=center;verticalAlign=middle;whiteSpace=wrap;rounded=0;" vertex="1" parent="1">
          <mxGeometry x="400" y="685" width="60" height="30" as="geometry" />
        </mxCell>
        <mxCell id="U1rXRDyI1pyq9QR3dmrv-108" value="Річний проїзний на метро" style="text;html=1;align=center;verticalAlign=middle;whiteSpace=wrap;rounded=0;" vertex="1" parent="1">
          <mxGeometry x="520" y="665" width="60" height="30" as="geometry" />
        </mxCell>
        <mxCell id="U1rXRDyI1pyq9QR3dmrv-109" value="" style="ellipse;whiteSpace=wrap;html=1;aspect=fixed;" vertex="1" parent="1">
          <mxGeometry x="322.5" y="760" width="60" height="60" as="geometry" />
        </mxCell>
        <mxCell id="U1rXRDyI1pyq9QR3dmrv-110" value="" style="ellipse;whiteSpace=wrap;html=1;aspect=fixed;" vertex="1" parent="1">
          <mxGeometry x="480" y="760" width="60" height="60" as="geometry" />
        </mxCell>
        <mxCell id="U1rXRDyI1pyq9QR3dmrv-111" value="Стає щасливим власником автомобіля" style="text;html=1;align=center;verticalAlign=middle;whiteSpace=wrap;rounded=0;" vertex="1" parent="1">
          <mxGeometry x="290" y="820" width="130" height="30" as="geometry" />
        </mxCell>
        <mxCell id="U1rXRDyI1pyq9QR3dmrv-112" value="Вимушений ходити пішки далі" style="text;html=1;align=center;verticalAlign=middle;whiteSpace=wrap;rounded=0;" vertex="1" parent="1">
          <mxGeometry x="440" y="820" width="130" height="30" as="geometry" />
        </mxCell>
        <mxCell id="U1rXRDyI1pyq9QR3dmrv-119" value="" style="ellipse;whiteSpace=wrap;html=1;aspect=fixed;fillColor=#00FF00;" vertex="1" parent="1">
          <mxGeometry x="395" y="65" width="10" height="10" as="geometry" />
        </mxCell>
        <mxCell id="U1rXRDyI1pyq9QR3dmrv-120" value="" style="ellipse;whiteSpace=wrap;html=1;aspect=fixed;fillColor=#FFFF00;" vertex="1" parent="1">
          <mxGeometry x="395" y="180" width="10" height="10" as="geometry" />
        </mxCell>
        <mxCell id="U1rXRDyI1pyq9QR3dmrv-121" value="" style="ellipse;whiteSpace=wrap;html=1;aspect=fixed;fillColor=#FF0000;" vertex="1" parent="1">
          <mxGeometry x="205" y="295" width="10" height="10" as="geometry" />
        </mxCell>
        <mxCell id="U1rXRDyI1pyq9QR3dmrv-125" value="" style="ellipse;whiteSpace=wrap;html=1;aspect=fixed;fillColor=#007FFF;" vertex="1" parent="1">
          <mxGeometry x="585" y="295" width="10" height="10" as="geometry" />
        </mxCell>
        <mxCell id="U1rXRDyI1pyq9QR3dmrv-126" value="" style="ellipse;whiteSpace=wrap;html=1;aspect=fixed;fillColor=#FFFF00;" vertex="1" parent="1">
          <mxGeometry x="475" y="455" width="10" height="10" as="geometry" />
        </mxCell>
        <mxCell id="U1rXRDyI1pyq9QR3dmrv-127" value="" style="ellipse;whiteSpace=wrap;html=1;aspect=fixed;fillColor=#FFFF00;" vertex="1" parent="1">
          <mxGeometry x="495" y="455" width="10" height="10" as="geometry" />
        </mxCell>
        <mxCell id="U1rXRDyI1pyq9QR3dmrv-128" value="" style="ellipse;whiteSpace=wrap;html=1;aspect=fixed;fillColor=#FFFF00;" vertex="1" parent="1">
          <mxGeometry x="495" y="485" width="10" height="10" as="geometry" />
        </mxCell>
        <mxCell id="U1rXRDyI1pyq9QR3dmrv-129" value="" style="ellipse;whiteSpace=wrap;html=1;aspect=fixed;fillColor=#FFFF00;" vertex="1" parent="1">
          <mxGeometry x="475" y="485" width="10" height="10" as="geometry" />
        </mxCell>
        <mxCell id="U1rXRDyI1pyq9QR3dmrv-130" value="" style="ellipse;whiteSpace=wrap;html=1;aspect=fixed;fillColor=#FFFF00;" vertex="1" parent="1">
          <mxGeometry x="485" y="470" width="10" height="10" as="geometry" />
        </mxCell>
        <mxCell id="U1rXRDyI1pyq9QR3dmrv-131" value="" style="ellipse;whiteSpace=wrap;html=1;aspect=fixed;fillColor=#FFFF00;" vertex="1" parent="1">
          <mxGeometry x="305" y="470" width="10" height="10" as="geometry" />
        </mxCell>
        <mxCell id="U1rXRDyI1pyq9QR3dmrv-132" value="" style="ellipse;whiteSpace=wrap;html=1;aspect=fixed;fillColor=#FFFF00;" vertex="1" parent="1">
          <mxGeometry x="322.5" y="480" width="10" height="10" as="geometry" />
        </mxCell>
        <mxCell id="U1rXRDyI1pyq9QR3dmrv-133" value="" style="ellipse;whiteSpace=wrap;html=1;aspect=fixed;fillColor=#FFFF00;" vertex="1" parent="1">
          <mxGeometry x="322.5" y="460" width="10" height="10" as="geometry" />
        </mxCell>
        <mxCell id="U1rXRDyI1pyq9QR3dmrv-134" value="" style="ellipse;whiteSpace=wrap;html=1;aspect=fixed;fillColor=#FFFF00;" vertex="1" parent="1">
          <mxGeometry x="287.5" y="460" width="10" height="10" as="geometry" />
        </mxCell>
        <mxCell id="U1rXRDyI1pyq9QR3dmrv-135" value="" style="ellipse;whiteSpace=wrap;html=1;aspect=fixed;fillColor=#FFFF00;" vertex="1" parent="1">
          <mxGeometry x="305" y="450" width="10" height="10" as="geometry" />
        </mxCell>
        <mxCell id="U1rXRDyI1pyq9QR3dmrv-136" value="" style="ellipse;whiteSpace=wrap;html=1;aspect=fixed;fillColor=#FFFF00;" vertex="1" parent="1">
          <mxGeometry x="287.5" y="480" width="10" height="10" as="geometry" />
        </mxCell>
        <mxCell id="U1rXRDyI1pyq9QR3dmrv-137" value="" style="ellipse;whiteSpace=wrap;html=1;aspect=fixed;fillColor=#FFFF00;" vertex="1" parent="1">
          <mxGeometry x="305" y="490" width="10" height="10" as="geometry" />
        </mxCell>
        <mxCell id="U1rXRDyI1pyq9QR3dmrv-138" value="" style="ellipse;whiteSpace=wrap;html=1;aspect=fixed;fillColor=#FFFF00;" vertex="1" parent="1">
          <mxGeometry x="225" y="520" width="10" height="10" as="geometry" />
        </mxCell>
        <mxCell id="U1rXRDyI1pyq9QR3dmrv-141" value="" style="ellipse;whiteSpace=wrap;html=1;aspect=fixed;fillColor=#00FF00;" vertex="1" parent="1">
          <mxGeometry x="100" y="80" width="10" height="10" as="geometry" />
        </mxCell>
        <mxCell id="U1rXRDyI1pyq9QR3dmrv-142" value="" style="ellipse;whiteSpace=wrap;html=1;aspect=fixed;fillColor=#FFFF00;" vertex="1" parent="1">
          <mxGeometry x="100" y="110" width="10" height="10" as="geometry" />
        </mxCell>
        <mxCell id="U1rXRDyI1pyq9QR3dmrv-144" value="" style="ellipse;whiteSpace=wrap;html=1;aspect=fixed;fillColor=#007FFF;" vertex="1" parent="1">
          <mxGeometry x="100" y="50" width="10" height="10" as="geometry" />
        </mxCell>
        <mxCell id="U1rXRDyI1pyq9QR3dmrv-145" value="" style="ellipse;whiteSpace=wrap;html=1;aspect=fixed;fillColor=#FF0000;" vertex="1" parent="1">
          <mxGeometry x="100" y="20" width="10" height="10" as="geometry" />
        </mxCell>
        <mxCell id="U1rXRDyI1pyq9QR3dmrv-147" value="" style="endArrow=classic;html=1;rounded=0;entryX=0;entryY=0.5;entryDx=0;entryDy=0;exitX=1;exitY=0.5;exitDx=0;exitDy=0;" edge="1" parent="1" source="U1rXRDyI1pyq9QR3dmrv-94" target="U1rXRDyI1pyq9QR3dmrv-109">
          <mxGeometry relative="1" as="geometry">
            <mxPoint x="389" y="631" as="sourcePoint" />
            <mxPoint x="300" y="660" as="targetPoint" />
          </mxGeometry>
        </mxCell>
        <mxCell id="U1rXRDyI1pyq9QR3dmrv-148" value="R:1 Y:2" style="edgeLabel;resizable=0;html=1;;align=center;verticalAlign=middle;" connectable="0" vertex="1" parent="U1rXRDyI1pyq9QR3dmrv-147">
          <mxGeometry relative="1" as="geometry" />
        </mxCell>
        <mxCell id="U1rXRDyI1pyq9QR3dmrv-149" value="" style="endArrow=classic;html=1;rounded=0;entryX=0.5;entryY=0;entryDx=0;entryDy=0;exitX=1;exitY=0.5;exitDx=0;exitDy=0;" edge="1" parent="1" source="U1rXRDyI1pyq9QR3dmrv-91" target="U1rXRDyI1pyq9QR3dmrv-109">
          <mxGeometry relative="1" as="geometry">
            <mxPoint x="389" y="631" as="sourcePoint" />
            <mxPoint x="338" y="680" as="targetPoint" />
          </mxGeometry>
        </mxCell>
        <mxCell id="U1rXRDyI1pyq9QR3dmrv-150" value="R:1 Y:7" style="edgeLabel;resizable=0;html=1;;align=center;verticalAlign=middle;" connectable="0" vertex="1" parent="U1rXRDyI1pyq9QR3dmrv-149">
          <mxGeometry relative="1" as="geometry" />
        </mxCell>
        <mxCell id="U1rXRDyI1pyq9QR3dmrv-151" value="" style="endArrow=classic;html=1;rounded=0;entryX=1;entryY=0.5;entryDx=0;entryDy=0;exitX=1;exitY=0.5;exitDx=0;exitDy=0;" edge="1" parent="1" source="U1rXRDyI1pyq9QR3dmrv-92" target="U1rXRDyI1pyq9QR3dmrv-109">
          <mxGeometry relative="1" as="geometry">
            <mxPoint x="431" y="631" as="sourcePoint" />
            <mxPoint x="480" y="680" as="targetPoint" />
          </mxGeometry>
        </mxCell>
        <mxCell id="U1rXRDyI1pyq9QR3dmrv-152" value="B:1 Y:6" style="edgeLabel;resizable=0;html=1;;align=center;verticalAlign=middle;" connectable="0" vertex="1" parent="U1rXRDyI1pyq9QR3dmrv-151">
          <mxGeometry relative="1" as="geometry" />
        </mxCell>
        <mxCell id="U1rXRDyI1pyq9QR3dmrv-153" value="" style="endArrow=classic;html=1;rounded=0;entryX=0.5;entryY=0;entryDx=0;entryDy=0;exitX=1;exitY=0.5;exitDx=0;exitDy=0;" edge="1" parent="1" source="U1rXRDyI1pyq9QR3dmrv-93" target="U1rXRDyI1pyq9QR3dmrv-110">
          <mxGeometry relative="1" as="geometry">
            <mxPoint x="431" y="631" as="sourcePoint" />
            <mxPoint x="520" y="660" as="targetPoint" />
          </mxGeometry>
        </mxCell>
        <mxCell id="U1rXRDyI1pyq9QR3dmrv-154" value="B:1" style="edgeLabel;resizable=0;html=1;;align=center;verticalAlign=middle;" connectable="0" vertex="1" parent="U1rXRDyI1pyq9QR3dmrv-153">
          <mxGeometry relative="1" as="geometry" />
        </mxCell>
        <mxCell id="U1rXRDyI1pyq9QR3dmrv-160" value="" style="endArrow=classic;html=1;rounded=0;exitX=0;exitY=1;exitDx=0;exitDy=0;entryX=1;entryY=0.5;entryDx=0;entryDy=0;" edge="1" parent="1" source="U1rXRDyI1pyq9QR3dmrv-60" target="U1rXRDyI1pyq9QR3dmrv-85">
          <mxGeometry relative="1" as="geometry">
            <mxPoint x="300" y="610" as="sourcePoint" />
            <mxPoint x="400" y="610" as="targetPoint" />
          </mxGeometry>
        </mxCell>
        <mxCell id="U1rXRDyI1pyq9QR3dmrv-161" value="B:1 Y:0" style="edgeLabel;resizable=0;html=1;;align=center;verticalAlign=middle;" connectable="0" vertex="1" parent="U1rXRDyI1pyq9QR3dmrv-160">
          <mxGeometry relative="1" as="geometry" />
        </mxCell>
        <mxCell id="U1rXRDyI1pyq9QR3dmrv-162" value="" style="endArrow=classic;html=1;rounded=0;exitX=0;exitY=1;exitDx=0;exitDy=0;entryX=1;entryY=0;entryDx=0;entryDy=0;" edge="1" parent="1" source="U1rXRDyI1pyq9QR3dmrv-59" target="U1rXRDyI1pyq9QR3dmrv-85">
          <mxGeometry relative="1" as="geometry">
            <mxPoint x="300" y="510" as="sourcePoint" />
            <mxPoint x="400" y="510" as="targetPoint" />
          </mxGeometry>
        </mxCell>
        <mxCell id="U1rXRDyI1pyq9QR3dmrv-163" value="B:1 Y:6" style="edgeLabel;resizable=0;html=1;;align=center;verticalAlign=middle;" connectable="0" vertex="1" parent="U1rXRDyI1pyq9QR3dmrv-162">
          <mxGeometry relative="1" as="geometry" />
        </mxCell>
        <mxCell id="U1rXRDyI1pyq9QR3dmrv-164" value="" style="endArrow=classic;html=1;rounded=0;entryX=0;entryY=0;entryDx=0;entryDy=0;exitX=1;exitY=1;exitDx=0;exitDy=0;" edge="1" parent="1" source="U1rXRDyI1pyq9QR3dmrv-57" target="U1rXRDyI1pyq9QR3dmrv-85">
          <mxGeometry relative="1" as="geometry">
            <mxPoint x="330" y="530" as="sourcePoint" />
            <mxPoint x="400" y="510" as="targetPoint" />
          </mxGeometry>
        </mxCell>
        <mxCell id="U1rXRDyI1pyq9QR3dmrv-165" value="R:1 Y:8" style="edgeLabel;resizable=0;html=1;;align=center;verticalAlign=middle;" connectable="0" vertex="1" parent="U1rXRDyI1pyq9QR3dmrv-164">
          <mxGeometry relative="1" as="geometry" />
        </mxCell>
        <mxCell id="U1rXRDyI1pyq9QR3dmrv-166" value="" style="endArrow=classic;html=1;rounded=0;entryX=0;entryY=0.5;entryDx=0;entryDy=0;exitX=1;exitY=1;exitDx=0;exitDy=0;" edge="1" parent="1" source="U1rXRDyI1pyq9QR3dmrv-58" target="U1rXRDyI1pyq9QR3dmrv-85">
          <mxGeometry relative="1" as="geometry">
            <mxPoint x="300" y="510" as="sourcePoint" />
            <mxPoint x="400" y="510" as="targetPoint" />
          </mxGeometry>
        </mxCell>
        <mxCell id="U1rXRDyI1pyq9QR3dmrv-167" value="R:1 Y:2" style="edgeLabel;resizable=0;html=1;;align=center;verticalAlign=middle;" connectable="0" vertex="1" parent="U1rXRDyI1pyq9QR3dmrv-166">
          <mxGeometry relative="1" as="geometry" />
        </mxCell>
        <mxCell id="U1rXRDyI1pyq9QR3dmrv-170" value="Вибирає авто" style="text;html=1;align=center;verticalAlign=middle;whiteSpace=wrap;rounded=0;" vertex="1" parent="1">
          <mxGeometry x="370" y="125" width="60" height="30" as="geometry" />
        </mxCell>
        <mxCell id="U1rXRDyI1pyq9QR3dmrv-171" value="Зважає на цінову категорію" style="text;html=1;align=center;verticalAlign=middle;whiteSpace=wrap;rounded=0;" vertex="1" parent="1">
          <mxGeometry x="160" y="240" width="100" height="30" as="geometry" />
        </mxCell>
        <mxCell id="U1rXRDyI1pyq9QR3dmrv-172" value="Зважає на цінову категорію" style="text;html=1;align=center;verticalAlign=middle;whiteSpace=wrap;rounded=0;" vertex="1" parent="1">
          <mxGeometry x="540" y="240" width="100" height="30" as="geometry" />
        </mxCell>
      </root>
    </mxGraphModel>
  </diagram>
</mxfile>
